<svg preserveAspectRatio="xMidYMid meet" version="1.1" xmlns="http://www.w3.org/2000/svg" style="display: block;" viewBox="0 0 2048 2048" width="1024" height="1024">
<path transform="translate(0,0)" fill="rgb(255,255,255)" d="M 0 0 L 2048 0 L 2048 2048 L 0 2048 L 0 0 z"/>
<path transform="translate(0,0)" fill="rgb(36,48,88)" d="M 1916.03 916.42 C 1923.82 915.799 1931.8 916.085 1939.61 916.05 C 1945.29 945.402 1951.41 975.929 1949.61 1005.96 C 1948.54 1023.74 1942.88 1032.37 1944.27 1053.01 C 1946.92 1092.37 1964.34 1108.88 1992.9 1133.64 C 1976.7 1150.58 1959.24 1152.15 1937.83 1157.82 C 1942.6 1164.3 1949.06 1169.19 1954.01 1175.44 C 1957.25 1179.53 1957.81 1183.45 1956.85 1188.53 C 1956.27 1191.55 1955.16 1194.92 1952.8 1196.98 C 1947.13 1201.92 1929.15 1206.64 1921.51 1210.15 C 1913.73 1213.73 1906.53 1217.98 1899.35 1222.64 C 1917.75 1219.02 1933.91 1215.28 1952.5 1219.73 C 1947.39 1229.99 1938.87 1238.23 1935.36 1249.32 C 1927.19 1275.16 1951.28 1288.14 1948.87 1298.63 C 1947.88 1302.92 1943.37 1306.21 1939.76 1308.24 C 1932.54 1312.3 1924.11 1314.48 1915.89 1315.05 C 1881.62 1317.41 1814.87 1300.58 1781.39 1291.13 C 1726.27 1275.58 1714.97 1257.88 1687.94 1209.53 C 1689.09 1216.36 1690.37 1223.13 1692.21 1229.82 C 1701.87 1264.76 1722.73 1287.21 1754.48 1303.76 C 1766.71 1310.14 1779.42 1315.46 1791.44 1322.24 C 1791.01 1338.22 1786.12 1353.26 1784.14 1369.01 C 1781.88 1386.94 1784.08 1405.3 1785.38 1423.24 C 1802.1 1435.51 1819.46 1447.96 1837.49 1458.18 C 1839.84 1467.63 1840.97 1477.63 1842.51 1487.26 C 1844.69 1500.9 1847.3 1514.64 1848.51 1528.4 C 1850.41 1550 1849.73 1572.02 1849.75 1593.69 C 1798.93 1546.29 1730.78 1504.86 1660.41 1499.71 C 1586.19 1494.29 1510.18 1537.75 1455.74 1584.94 C 1403.7 1633.56 1346.41 1694.21 1280.58 1723.1 C 1225.52 1747.27 1166.41 1744.85 1110.91 1723.12 C 1122.19 1720.32 1133.34 1715.06 1143.66 1709.81 C 1213.39 1674.33 1253.24 1604.41 1299.53 1544.55 C 1324.08 1512.79 1351.26 1481.87 1380.36 1454.19 C 1407.06 1428.28 1437.14 1406.09 1469.78 1388.22 C 1483.46 1380.74 1497.7 1374.28 1511.54 1367.09 C 1535.93 1333.06 1554.35 1297.69 1562.63 1256.26 C 1569.65 1221.18 1572.06 1175.95 1556.77 1142.55 C 1552.79 1133.85 1546.82 1125.82 1541.53 1117.86 C 1563.34 1086.06 1594.57 1053.76 1626.31 1031.81 C 1640.95 1040.02 1656.07 1045.45 1673.02 1045.84 C 1697.23 1046.54 1720.69 1037.42 1738.08 1020.57 C 1757.67 1001.51 1765.12 975.768 1765.35 949.04 C 1814.07 932.948 1864.72 920.089 1916.03 916.42 z"/>
<path transform="translate(0,0)" fill="rgb(255,255,255)" d="M 1582.65 1383.43 C 1646.62 1379.87 1708.37 1403.34 1761.58 1437.3 C 1780 1449.06 1797.44 1462.37 1815.13 1475.21 C 1818.1 1496.73 1822.04 1517.85 1823.85 1539.55 C 1808.88 1530.44 1795.45 1519.05 1780.69 1509.65 C 1745.99 1487.56 1701.05 1473.59 1660 1471.58 C 1586.68 1467.98 1512.26 1503.11 1455.95 1548.11 C 1433.93 1565.69 1413.87 1585.89 1392.98 1604.79 C 1344.36 1648.95 1288.54 1693.89 1222.99 1708.4 C 1210.76 1711.11 1198.46 1712.08 1186.01 1713.06 C 1236.09 1683.04 1259.4 1644.96 1293.04 1599.86 C 1312.75 1572.98 1333.62 1546.96 1355.59 1521.89 C 1403.31 1468.3 1463.62 1410.79 1534.31 1390.75 C 1550.3 1386.22 1566.14 1384.41 1582.65 1383.43 z"/>
<path transform="translate(0,0)" fill="rgb(255,255,255)" d="M 1612.08 1048.38 C 1618.58 1052.66 1624.52 1077.02 1628.03 1085.19 C 1635.11 1101.67 1648.11 1122.22 1665.71 1128.72 C 1677.23 1132.98 1687.77 1130.91 1698.48 1125.85 C 1694.14 1132.8 1689.77 1138.09 1683.5 1143.31 C 1680.76 1145.12 1677.99 1146.94 1675.01 1148.33 C 1664.49 1153.22 1652.3 1154.49 1641.37 1150.18 C 1627 1144.5 1617.62 1130.92 1611.9 1117.13 C 1602.23 1093.8 1602.35 1071.51 1612.08 1048.38 z"/>
<path transform="translate(0,0)" fill="rgb(255,255,255)" d="M 1867.16 1021.31 C 1890.47 1019.71 1915.56 1022.92 1936.33 1034.03 C 1923.38 1036.42 1910.17 1038.43 1897.01 1039.16 C 1898.47 1048.12 1900.56 1056.55 1903.97 1064.98 C 1904.72 1066.63 1905.06 1067.71 1905.12 1069.52 C 1904.3 1070.03 1903.88 1070.37 1902.84 1070.56 C 1887.75 1073.28 1850.57 1047.4 1838.68 1038.17 C 1846.88 1030.86 1856.68 1024.67 1867.16 1021.31 z"/>
<path transform="translate(0,0)" fill="rgb(36,48,88)" d="M 247.035 771.445 C 251.681 774.677 259.606 805.214 277.376 817.771 C 268.495 840.941 262.814 866.303 257.405 890.476 C 233.984 995.151 231.301 1099.36 246.207 1205.34 C 251.253 1238.85 258.661 1271.96 268.376 1304.43 C 314.532 1467.46 412.348 1611.1 547.127 1713.79 C 717.816 1840.73 931.956 1894.62 1142.4 1863.61 C 1315.21 1839.08 1479.37 1751.87 1602.7 1629.33 C 1635.99 1596.25 1665.46 1560.58 1693.57 1523.12 C 1709.43 1526.08 1725.26 1532.43 1739.93 1539.04 C 1735 1546.58 1728.71 1553.65 1723.09 1560.74 C 1711.57 1575.39 1699.79 1589.85 1687.78 1604.11 C 1691.87 1613.14 1697.68 1621.75 1702.75 1630.29 C 1710.92 1643.93 1718.91 1657.68 1726.72 1671.53 C 1704.58 1695.5 1681.51 1720.06 1656.98 1741.6 C 1634.26 1729.47 1611.32 1717.74 1588.18 1706.43 C 1566.38 1724.4 1544.65 1742.21 1521.97 1759.08 C 1525.3 1774.04 1539.25 1827.41 1539.25 1838.93 C 1539.25 1841.66 1538.26 1841.96 1536.39 1843.76 C 1511.45 1859.29 1481.24 1877.16 1454.03 1888.01 C 1435.93 1869.44 1418.02 1850.68 1400.3 1831.73 C 1374.83 1843.34 1349.27 1855.05 1323.14 1865.09 C 1322.64 1891.67 1319.54 1918.27 1318.85 1944.87 C 1287.88 1955.76 1255.53 1962.99 1223.48 1969.89 C 1215.33 1957.8 1207.14 1945.67 1199.53 1933.24 C 1193.03 1922.61 1187.15 1910.54 1179.05 1901.1 C 1151.87 1905.95 1124.5 1909.7 1097.01 1912.34 C 1092.22 1939.16 1082.75 1965.88 1075.06 1992.05 C 1041.93 1994.77 1007.52 1992.99 974.234 1992.89 C 965.428 1965.85 956.243 1938.74 948.688 1911.32 C 921.294 1907.75 894.294 1904.78 867.177 1899.28 C 854.841 1923.6 838.315 1946.28 823.08 1968.85 C 807.717 1964.08 792.015 1960.61 776.449 1956.59 C 759.935 1952.32 743.551 1947.5 727.062 1943.11 C 726.418 1916.21 724.462 1889.34 723.932 1862.41 C 713.22 1857.47 701.837 1853.68 690.925 1849.14 C 677.218 1843.45 663.774 1836.99 650.303 1830.76 C 630.783 1849.52 610.333 1867.01 589.685 1884.5 C 563.296 1866.12 534.775 1849.88 507.262 1833.2 C 514.731 1808.17 520.273 1781.41 524.767 1755.68 C 502.229 1739.47 480.875 1721.27 459.588 1703.45 C 438.187 1716.49 415.585 1727.74 393.409 1739.4 C 370.493 1715.06 347.358 1690.68 322.666 1668.12 C 334.225 1643.31 346.073 1618.76 357.093 1593.69 L 309.738 1522.5 C 284.009 1527.76 257.445 1533.46 231.417 1536.6 C 217.121 1509.44 203.523 1481.93 190.635 1454.08 C 209.408 1433.88 227.941 1413.44 247.389 1393.88 C 238.739 1366.78 228.61 1340.35 220.382 1313.04 C 193.016 1307.44 164.667 1306.54 137.107 1301.86 L 118.02 1206 C 142.583 1191.78 168.79 1179.64 194.037 1166.62 C 182.953 1053.6 195.684 941.234 226.303 832.208 C 231.773 812.731 236.564 788.77 247.035 771.445 z"/>
<path transform="translate(0,0)" fill="rgb(36,48,88)" d="M 995.913 110.556 C 1021.28 109.152 1046.84 109.791 1072.25 109.626 C 1080.65 135.747 1090.2 161.547 1097.62 187.975 C 1124.93 190.82 1152.42 193.337 1179.57 197.421 C 1191.54 173.35 1206.93 151.251 1222.29 129.269 C 1255.15 134.606 1287.46 143.157 1319.75 151.146 C 1321.8 179.067 1323.74 205.851 1322.53 233.897 C 1348.38 243.004 1372.92 253.557 1398.17 264.101 C 1418.94 243.53 1440.16 224.408 1462.87 205.961 C 1491.92 223.21 1521.34 239.597 1549.51 258.294 C 1542.75 285.307 1534.84 311.085 1525.08 337.168 C 1549.1 354.702 1572.67 372.469 1595.74 391.239 C 1619.23 375.126 1643.82 362.18 1669.06 349.097 C 1693.12 369.593 1716.06 393.421 1737.76 416.421 C 1727.8 440.975 1709.78 469.625 1694.49 491.491 C 1715.05 513.547 1732.6 537.782 1751.08 561.529 C 1775.98 552.797 1801.95 547.511 1827.57 541.364 C 1846.34 567.611 1862.78 595.454 1876.68 624.575 C 1860.65 644.77 1841.79 663.522 1822.33 680.397 L 1822.69 684.006 C 1823.28 690.705 1825 697.031 1826.64 703.54 C 1811.05 701.055 1795.42 698.827 1779.76 696.856 C 1758.27 656.91 1735.82 618.64 1709.64 581.542 C 1608.26 438.87 1464.7 331.571 1299.16 274.738 C 1143.4 222.433 975.522 218.13 817.289 262.386 C 759.364 279.024 705.012 302.473 651.009 328.963 C 642.341 306.504 637.028 283.187 631.099 259.907 C 638.287 265.086 645.633 270.104 652.12 276.161 C 678.027 267.625 703.294 254.6 728.411 243.864 C 730.103 217.179 731.563 190.48 732.79 163.769 C 762.792 153.175 794.627 144.332 825.525 136.675 C 830.59 145.138 837.847 152.788 843.697 160.788 C 853.707 174.478 862.826 189.182 871.517 203.745 C 898.112 198.085 924.852 194.319 951.829 191.095 C 959.721 164.616 967.276 138.037 974.492 111.366 L 995.913 110.556 z"/>
<path transform="translate(0,0)" fill="rgb(36,48,88)" d="M 1271.65 490.158 C 1277.03 489.797 1282.38 489.322 1287.7 490.52 C 1297.41 492.709 1305.75 498.324 1310.97 506.872 C 1316.14 515.161 1317.57 525.248 1314.91 534.648 C 1311.91 545.261 1304.76 552.851 1295.33 558.145 C 1301.01 561.745 1305.83 565.646 1309.65 571.278 C 1315.02 579.183 1317.17 588.75 1315.19 598.15 C 1312.66 610.111 1305.07 617.033 1295.23 623.24 C 1300.97 626.552 1305.98 630.621 1309.72 636.161 C 1315.22 644.329 1317 654.193 1315.01 663.82 C 1312.62 675.388 1306.08 682.425 1296.55 688.612 C 1302.7 692.37 1307.61 696.657 1311.26 702.968 C 1316.13 711.381 1317.39 721.404 1314.75 730.759 C 1311.86 741.223 1305.17 748.057 1295.83 753.098 C 1305.26 759.518 1312.51 766.051 1315.29 777.681 C 1317.53 787.382 1315.77 797.575 1310.41 805.967 C 1305.16 814.11 1296.74 819.676 1287.19 821.307 C 1276.65 823.143 1268.01 820.363 1259.39 814.522 C 1240.11 829.456 1221.71 845.528 1202.88 861.027 C 1180.34 879.59 1157.35 897.752 1135.25 916.841 L 1444.57 916.934 L 1443.52 930.729 L 664.736 930.049 L 546.554 930.295 C 527.038 930.479 506.634 932.179 487.207 931.111 C 485.19 931 483.572 930.594 481.682 929.925 C 479.312 927.612 479.183 926.732 478.284 923.644 C 478.658 922 478.564 921.038 479.854 919.817 C 482.691 917.132 486.775 916.514 490.533 916.209 C 501.403 915.327 513.042 916.499 523.989 916.681 C 541.076 916.821 558.163 916.85 575.251 916.768 L 782.997 916.79 L 782.981 869.56 C 777.659 868.718 773.3 867.45 768.625 864.712 C 758.493 858.779 751.46 849.474 748.929 837.968 C 746.473 826.524 748.767 814.574 755.287 804.854 C 761.252 795.883 770.606 789.721 781.203 787.781 C 792.504 785.735 804.593 788.62 813.988 795.185 C 821.5 800.435 827.579 808.83 829.185 817.942 C 831.329 830.116 830.126 842.133 822.665 852.359 C 815.199 862.59 803.75 867.816 791.486 869.473 L 791.503 916.779 L 870.235 916.752 L 871.002 723.931 C 870.196 723.682 869.393 723.423 868.594 723.154 C 859.861 720.189 852.16 714.693 848.182 706.149 C 845.007 699.329 844.588 690.002 847.494 683.022 C 850.88 674.891 857.989 668.735 866.142 665.691 C 873.446 662.965 881.389 662.911 888.489 666.303 C 895.65 669.724 900.973 676.206 903.531 683.656 C 906.055 691.008 905.937 699.516 902.446 706.541 C 897.752 715.988 889.516 720.08 879.994 723.207 C 880.042 748.515 879.818 773.822 879.322 799.125 L 879.293 916.722 L 934.121 916.58 C 934.452 885.896 933.869 855.176 933.897 824.487 C 934.106 769.775 933.989 715.063 933.547 660.352 C 924.766 657.821 917.099 653.334 912.465 645.178 C 908.64 638.469 907.722 630.489 909.925 623.088 C 912.408 614.771 918.133 607.802 925.81 603.752 C 932.647 600.125 940.67 599.453 948.015 601.893 C 956.009 604.592 963.153 610.82 966.527 618.614 C 969.596 625.704 969.328 635.752 966.092 642.737 C 961.533 652.581 952.194 656.827 942.601 660.315 C 940.289 745.657 942.118 831.482 942.424 916.868 L 989.84 916.841 L 989.931 775.937 C 994.486 771.733 1000.33 768.48 1005.39 764.871 C 1012.92 759.512 1019.97 753.831 1026.96 747.794 C 1025.43 686.51 1026.61 624.905 1026.6 563.584 C 1023.91 562.808 1021.08 562.079 1018.49 561.004 C 1011.41 558.059 1004.89 551.755 1002.11 544.571 C 999.324 537.383 999.565 528.163 1002.7 521.116 C 1005.81 514.035 1011.6 508.475 1018.8 505.658 C 1026.89 502.485 1035.42 501.921 1043.37 505.831 C 1050.13 509.161 1055.28 515.443 1057.63 522.566 C 1060.35 530.803 1059.84 540.177 1055.74 547.877 C 1051.05 556.683 1044.13 559.801 1035.09 562.445 L 1035.16 741.76 C 1047.21 733.025 1058.37 723.038 1069.88 713.612 C 1099.59 689.288 1128.62 664.296 1158.01 639.608 C 1150.6 637.145 1144.2 634.246 1139.19 628.021 C 1134.29 622.002 1132.11 614.221 1133.18 606.535 C 1134.4 598.257 1139.04 590.873 1145.97 586.178 C 1151.7 582.192 1158.81 580.692 1165.67 582.02 C 1173.42 583.509 1180.25 588.063 1184.6 594.652 C 1188.96 601.236 1190.46 609.309 1188.75 617.017 C 1187.43 622.667 1183.27 627.14 1179.37 631.222 C 1168.52 642.575 1155.85 652.46 1143.89 662.634 C 1125.57 678.214 1107.38 693.839 1088.83 709.154 C 1060.91 732.203 1029.41 761.19 998.996 780.147 L 998.837 916.979 L 1045.06 916.977 L 1044.98 808.797 C 1062.29 788.897 1089.4 770.424 1110.36 753.662 C 1151.04 721.136 1191.4 688.576 1233.02 657.249 C 1248.97 645.244 1245.31 633.574 1262.89 624.278 C 1257.88 620.643 1253.18 616.826 1249.66 611.673 C 1243.84 603.162 1241.15 592.918 1243.2 582.702 C 1245.54 571.089 1252.81 564.139 1262.29 557.964 C 1254.08 552.284 1247.68 546.134 1244.51 536.393 C 1241.52 527.087 1242.42 516.968 1247.02 508.341 C 1252.36 498.442 1261.16 493.186 1271.65 490.158 z"/>
<path transform="translate(0,0)" fill="rgb(255,255,255)" d="M 1241.77 660.864 C 1242.98 662.012 1243.31 663.852 1243.94 665.393 C 1248.44 676.441 1253.55 682.523 1263.62 688.921 C 1256.9 692.442 1251.26 696.939 1247.32 703.529 C 1242.38 711.802 1241.45 721.748 1244.13 730.958 C 1247.21 741.519 1253.36 747.72 1262.69 752.817 C 1262.07 753.219 1261.45 753.621 1260.84 754.044 C 1251.77 760.38 1245.12 768.471 1243.32 779.69 C 1241.52 790.972 1245.45 799.907 1252.05 808.698 C 1225.69 832.348 1197.79 854.807 1170.3 877.136 C 1157.68 887.389 1142.41 897.72 1131.3 909.529 C 1129.37 911.585 1128.46 914.111 1127.56 916.736 L 1103.04 916.837 L 1053.12 917.006 L 1053.22 810.858 C 1072.81 792.83 1095.23 776.875 1116.06 760.161 C 1157.75 726.701 1199.25 693.274 1241.77 660.864 z"/>
<path transform="translate(0,0)" fill="rgb(255,255,255)" d="M 781.408 797.41 C 798.539 793.136 815.88 803.608 820.072 820.759 C 824.264 837.911 813.708 855.201 796.537 859.31 C 779.482 863.391 762.334 852.923 758.171 835.888 C 754.008 818.853 764.393 801.655 781.408 797.41 z"/>
<path transform="translate(0,0)" fill="rgb(255,255,255)" d="M 1271.32 499.362 C 1285.55 494.805 1300.78 502.703 1305.25 516.966 C 1309.72 531.229 1301.73 546.407 1287.44 550.793 C 1273.27 555.141 1258.25 547.233 1253.82 533.092 C 1249.39 518.95 1257.2 503.881 1271.32 499.362 z"/>
<path transform="translate(0,0)" fill="rgb(255,255,255)" d="M 1276.99 564.014 C 1291.56 562.837 1304.41 573.524 1305.91 588.074 C 1307.41 602.624 1297.01 615.704 1282.49 617.522 C 1272.82 618.734 1263.24 614.614 1257.47 606.754 C 1251.69 598.894 1250.63 588.525 1254.68 579.654 C 1258.73 570.782 1267.26 564.798 1276.99 564.014 z"/>
<path transform="translate(0,0)" fill="rgb(255,255,255)" d="M 1273.55 630.029 C 1282.99 627.977 1292.81 631.157 1299.25 638.355 C 1305.7 645.554 1307.78 655.66 1304.7 664.82 C 1301.63 673.98 1293.86 680.781 1284.38 682.627 C 1269.93 685.44 1255.92 676.101 1252.95 661.687 C 1249.98 647.273 1259.16 633.154 1273.55 630.029 z"/>
<path transform="translate(0,0)" fill="rgb(255,255,255)" d="M 1276.25 759.172 C 1290.75 757.142 1304.2 767.109 1306.47 781.57 C 1308.75 796.031 1299.01 809.646 1284.59 812.167 C 1275.04 813.836 1265.34 810.225 1259.2 802.721 C 1253.07 795.216 1251.46 784.986 1254.99 775.96 C 1258.53 766.934 1266.65 760.516 1276.25 759.172 z"/>
<path transform="translate(0,0)" fill="rgb(255,255,255)" d="M 1272.59 695.002 C 1281.98 692.546 1291.96 695.379 1298.66 702.401 C 1305.36 709.424 1307.72 719.528 1304.82 728.792 C 1301.93 738.055 1294.23 745.018 1284.73 746.976 C 1270.56 749.895 1256.64 740.992 1253.35 726.902 C 1250.06 712.811 1258.59 698.663 1272.59 695.002 z"/>
<path transform="translate(0,0)" fill="rgb(255,255,255)" d="M 870.527 673.652 C 881.68 670.937 892.926 677.763 895.665 688.911 C 898.403 700.058 891.601 711.318 880.46 714.081 C 869.284 716.852 857.982 710.025 855.235 698.843 C 852.488 687.662 859.34 676.375 870.527 673.652 z"/>
<path transform="translate(0,0)" fill="rgb(255,255,255)" d="M 934.304 610.339 C 945.449 607.907 956.455 614.97 958.888 626.114 C 961.321 637.258 954.26 648.265 943.116 650.699 C 931.97 653.134 920.961 646.071 918.527 634.925 C 916.094 623.779 923.158 612.771 934.304 610.339 z"/>
<path transform="translate(0,0)" fill="rgb(255,255,255)" d="M 1027.84 512.535 C 1039.26 511.421 1049.4 519.83 1050.42 531.26 C 1051.43 542.689 1042.94 552.755 1031.5 553.674 C 1020.2 554.582 1010.28 546.21 1009.28 534.918 C 1008.27 523.626 1016.56 513.636 1027.84 512.535 z"/>
<path transform="translate(0,0)" fill="rgb(255,255,255)" d="M 1155.01 591.068 C 1157.85 590.806 1160.74 590.495 1163.57 590.99 C 1168.66 591.881 1173.58 594.721 1176.51 599.032 C 1179.51 603.455 1180.23 609.034 1178.96 614.175 C 1177.13 621.62 1172.37 625.85 1166.17 629.864 C 1163.46 630.319 1160.75 630.81 1158.01 630.265 C 1153 629.268 1148.25 626.166 1145.49 621.845 C 1142.21 616.713 1141.52 610.439 1143.12 604.619 C 1144.99 597.822 1149.21 594.574 1155.01 591.068 z"/>
<path transform="translate(0,0)" fill="rgb(36,48,88)" d="M 583.813 117.1 C 588.9 116.844 593.73 116.847 598.675 118.245 C 607.719 120.803 615.438 126.736 619.713 135.17 C 623.825 143.328 624.357 152.828 621.184 161.394 C 617.111 172.258 609.299 177.291 599.379 182.038 C 618.24 255.637 628.274 331.652 668.256 397.692 C 635.149 427.196 603.416 458.382 570.614 488.262 L 391.463 649.487 L 325.298 708.987 C 305.711 726.956 286.692 745.541 265.93 762.177 C 228.731 742.677 190.301 725.288 152.562 706.845 C 132.844 697.209 113.672 685.377 93.4476 676.988 C 87.9144 682.789 81.6777 688.055 74.0837 690.933 C 65.485 694.193 57.0778 693.08 48.8595 689.258 C 40.1157 685.192 33.1268 678.222 30.0618 668.967 C 26.8711 659.332 28.2923 648.837 33.1657 640.031 C 37.7859 631.682 45.7789 625.181 55.055 622.791 C 66.2042 619.918 76.1846 623.059 85.6621 628.973 C 86.3978 629.702 87.127 630.438 87.8496 631.18 C 97.063 640.667 99.1616 650.417 98.9376 663.302 C 149.314 672.363 208.014 683.544 257.685 666.467 C 283.93 657.444 304.063 640.08 316.153 615.061 C 336.011 573.967 334.621 517.901 324.854 474.252 C 320.832 456.278 314.664 439.085 308.634 421.716 C 292.091 427.974 277.016 430.404 259.907 423.649 C 245.686 418.033 234.916 406.611 229.215 392.57 C 223.191 377.631 223.445 360.895 229.919 346.146 C 236.023 332.175 246.902 321.453 261.15 315.971 C 275.955 310.309 292.395 310.706 306.91 317.076 C 321.311 323.485 332.567 335 337.983 349.917 C 344.33 367.397 340.56 383.37 332.75 399.461 C 345.809 404.559 358.086 412.167 370.847 418.045 C 404.708 433.642 444.811 442.132 482.109 439.387 C 509.519 437.369 535.423 428.171 553.599 406.713 C 593.974 359.048 585.239 243.5 580.41 182.826 C 577.884 181.901 575.416 180.92 573.009 179.709 C 565.054 175.706 559.038 168.817 556.47 160.245 C 553.972 151.77 555.012 142.644 559.354 134.948 C 564.852 124.985 573.321 120.27 583.813 117.1 z"/>
<path transform="translate(0,0)" fill="rgb(255,255,255)" d="M 276.683 335.558 C 295.517 332.068 313.58 344.616 316.882 363.484 C 320.184 382.353 307.456 400.289 288.556 403.403 C 269.921 406.472 252.29 393.961 249.034 375.358 C 245.779 356.754 258.113 338.999 276.683 335.558 z"/>
<path transform="translate(0,0)" fill="rgb(255,255,255)" d="M 58.8308 639.334 C 68.8455 636.74 79.0752 642.721 81.726 652.721 C 84.3767 662.721 78.4529 672.984 68.468 675.691 C 58.4035 678.42 48.0404 672.438 45.3686 662.359 C 42.6967 652.279 48.7362 641.95 58.8308 639.334 z"/>
<path transform="translate(0,0)" fill="rgb(255,255,255)" d="M 586.614 133.731 C 592.47 132.685 598.433 134.899 602.187 139.513 C 605.941 144.128 606.895 150.416 604.679 155.937 C 602.462 161.457 597.425 165.34 591.522 166.078 C 582.72 167.177 574.645 161.064 573.314 152.295 C 571.984 143.525 577.882 135.292 586.614 133.731 z"/>
<path transform="translate(0,0)" fill="rgb(36,48,88)" d="M 817.715 1239.49 L 1495.94 1239.69 L 1496.03 1252.99 L 1260.04 1252.92 L 1260.05 1293.96 C 1263.72 1294.93 1267.57 1296.21 1271.05 1297.75 C 1280.98 1302.14 1288.99 1309.94 1292.98 1320.11 C 1297.24 1331.22 1296.71 1343.6 1291.52 1354.31 C 1286.78 1364.19 1278.75 1371.8 1268.33 1375.37 C 1257.41 1379.13 1245.42 1378.13 1235.27 1372.62 C 1226.45 1367.89 1218.15 1358.96 1215.46 1349.15 C 1212.26 1337.47 1213.84 1323.86 1220.35 1313.59 C 1227.59 1302.18 1238.39 1296.67 1251.2 1293.98 L 1251.34 1252.98 L 1173.5 1253 C 1172.62 1308.8 1172.72 1365.01 1173.65 1420.8 C 1183.26 1423.48 1190.74 1426.3 1196.11 1435.49 C 1200.45 1443.05 1201.42 1452.09 1198.79 1460.41 C 1196.25 1468.51 1190.44 1475.86 1182.81 1479.71 C 1175.09 1483.61 1166.61 1483.65 1158.6 1480.61 C 1151.23 1477.81 1145.35 1471.76 1142.35 1464.49 C 1139.19 1456.86 1139.3 1446.54 1142.72 1439.02 C 1146.98 1429.67 1155.59 1424.01 1164.89 1420.47 L 1164.79 1253.07 L 1109.62 1253.02 C 1108.77 1300.22 1109.36 1347.56 1109.35 1394.77 C 1109.34 1428.42 1108.22 1462.52 1109.77 1496.12 C 1112.39 1496.78 1114.97 1497.53 1117.48 1498.51 C 1125.64 1501.71 1132.91 1508.38 1136.26 1516.54 C 1139.61 1524.72 1138.54 1532.92 1134.95 1540.82 C 1131.6 1548.19 1125.9 1554.64 1118.14 1557.43 C 1110.83 1560.05 1102.3 1559.28 1095.33 1555.99 C 1087.63 1552.37 1081.5 1545.92 1078.9 1537.75 C 1076.33 1529.68 1076.89 1519.91 1080.9 1512.4 C 1085.08 1504.57 1092.61 1499.55 1100.95 1497.19 L 1100.87 1252.99 L 1052.84 1252.97 L 1052.93 1366.81 C 1042.01 1377.54 1028.64 1386.98 1016.79 1396.7 C 1015.13 1417.07 1016.12 1438.17 1016.1 1458.63 L 1016.04 1569.79 C 1017.59 1570.28 1019.13 1570.81 1020.66 1571.39 C 1028.13 1574.32 1035.15 1580.76 1038.21 1588.23 C 1041.19 1595.53 1040.77 1604.09 1037.67 1611.27 C 1034.22 1619.27 1027.5 1625.83 1019.22 1628.69 C 1012.22 1631.1 1004.06 1630.87 997.425 1627.44 C 989.337 1623.25 984.464 1615.45 981.909 1606.93 C 979.681 1599.51 980.434 1591.9 984.306 1585.15 C 989.717 1575.72 997.79 1572.02 1007.8 1569.51 L 1007.7 1404.13 C 996.984 1413.09 986.599 1422.5 976.085 1431.7 C 960.595 1445.41 945.35 1459.4 929.595 1472.81 C 935.141 1477.33 939.803 1481.73 943.525 1487.95 C 949.548 1498.01 952.374 1510.47 949.29 1521.96 C 945.747 1535.15 937.107 1547.36 925.071 1554.05 C 914.163 1560.1 900.201 1561.15 888.338 1557.5 C 876.142 1553.71 865.998 1545.16 860.215 1533.77 C 854.48 1522.5 853.582 1509.38 857.73 1497.43 C 862.981 1482.68 874.486 1473.61 888.087 1467.05 L 888.213 1427.03 C 921.695 1397.94 955.174 1368.43 989.555 1340.41 C 990.359 1311.34 989.753 1282.13 989.683 1253.04 L 963.451 1253.05 C 949.117 1267.53 931.134 1280.24 915.407 1293.27 L 818.778 1373.48 C 804.423 1385.42 787.81 1396.82 775.206 1410.62 C 775.161 1416.38 775.764 1422.09 776.28 1427.81 C 778.539 1428.51 780.825 1429.2 783.016 1430.09 C 789.952 1432.91 795.601 1439.14 798.071 1446.17 C 800.86 1454.28 800.193 1463.18 796.226 1470.78 C 792.592 1477.71 786.343 1482.92 778.862 1485.23 C 770.927 1487.63 762.394 1486.19 755.299 1482.04 C 749.332 1478.55 744.065 1472.01 742.425 1465.23 C 740.434 1457.01 741.491 1447.68 746.101 1440.5 C 750.985 1432.9 758.376 1429.25 766.932 1427.37 C 767.092 1419.85 766.919 1412.3 766.858 1404.78 C 803.595 1375.13 840.061 1345.14 876.25 1314.82 C 901.049 1294.35 926.625 1274.44 950.662 1253.1 L 787.696 1253.05 C 772.736 1266.45 756.547 1278.82 741.025 1291.59 C 716.768 1311.69 692.666 1331.97 668.721 1352.44 C 669.898 1354.42 671.078 1356.41 672.087 1358.48 C 676.664 1367.87 677.8 1379.71 674.351 1389.65 C 670.64 1400.34 663.072 1406.2 653.193 1410.71 C 661.032 1414.96 667.241 1419.67 671.767 1427.56 C 676.535 1435.99 677.694 1445.99 674.982 1455.29 C 671.857 1466.37 664.998 1473.32 655.16 1478.64 C 659.566 1481.25 663.494 1484.11 666.796 1488.08 C 673.069 1495.61 676.418 1504.85 675.449 1514.7 C 674.437 1524.98 669.842 1535.3 661.503 1541.67 C 653.917 1547.47 643.786 1549.61 634.414 1548.22 C 623.852 1546.66 614.405 1540.8 608.311 1532.03 C 602.916 1524.09 600.912 1514.32 602.741 1504.89 C 605.202 1492.61 613.782 1485.1 623.782 1478.66 C 617.562 1474.61 612.625 1470.6 608.636 1464.23 C 603.484 1456.02 601.543 1445.95 603.877 1436.48 C 606.974 1423.91 615.501 1417.18 626.031 1410.92 C 615.595 1405.53 608.085 1398.64 604.485 1387.12 C 601.589 1377.94 602.459 1367.98 606.905 1359.45 C 611.409 1350.85 619.205 1344.44 628.514 1341.69 C 640.415 1338.18 650.86 1341.18 661.298 1346.96 C 677.637 1334.86 692.85 1320.73 708.468 1307.68 C 730.237 1289.49 752.555 1271.79 773.909 1253.12 L 563.182 1252.81 C 546.637 1252.78 506.154 1255.53 492.396 1252.15 C 491.773 1251.21 491.551 1250.99 491.171 1249.79 C 490.464 1247.56 490.845 1244.85 491.828 1242.81 C 493.835 1241.37 495.416 1240.45 497.96 1240.16 C 508.551 1238.95 520.345 1239.86 531.068 1239.82 L 597 1239.61 L 817.715 1239.49 z"/>
<path transform="translate(0,0)" fill="rgb(255,255,255)" d="M 998.555 1253.02 L 1042.96 1253.07 C 1042.59 1289.52 1043.27 1325.99 1042.77 1362.45 C 1032.95 1374.2 1013.03 1387.62 1000.78 1398.09 C 976.876 1418.5 953.876 1440.11 930.591 1461.22 L 921.523 1469.49 C 912.942 1466.99 905.038 1465.93 896.108 1465.71 C 895.978 1454.44 895.582 1442.96 896.62 1431.74 C 906.037 1422.62 916.487 1414.42 926.467 1405.9 C 950.572 1385.33 975.421 1364.9 998.5 1343.2 C 998.31 1313.14 998.329 1283.08 998.555 1253.02 z"/>
<path transform="translate(0,0)" fill="rgb(255,255,255)" d="M 898.424 1475.57 C 918.962 1473.24 937.484 1488.04 939.733 1508.59 C 941.981 1529.14 927.101 1547.6 906.544 1549.76 C 886.105 1551.92 867.772 1537.14 865.536 1516.71 C 863.3 1496.28 878.003 1477.89 898.424 1475.57 z"/>
<path transform="translate(0,0)" fill="rgb(36,48,88)" d="M 897.429 1483.39 C 913.384 1480.52 928.696 1490.95 931.883 1506.84 C 935.07 1522.73 924.96 1538.26 909.135 1541.77 C 898.608 1544.1 887.64 1540.56 880.463 1532.52 C 873.285 1524.47 871.02 1513.17 874.54 1502.98 C 878.06 1492.78 886.815 1485.29 897.429 1483.39 z"/>
<path transform="translate(0,0)" fill="rgb(255,255,255)" d="M 897 1493.42 C 907.792 1490.49 918.908 1496.9 921.787 1507.7 C 924.667 1518.51 918.213 1529.59 907.396 1532.42 C 896.646 1535.24 885.645 1528.83 882.783 1518.1 C 879.922 1507.36 886.277 1496.33 897 1493.42 z"/>
<path transform="translate(0,0)" fill="rgb(255,255,255)" d="M 1248.46 1304.7 C 1259.72 1302.35 1271.37 1306.25 1278.94 1314.9 C 1286.52 1323.55 1288.84 1335.62 1285.02 1346.46 C 1281.2 1357.31 1271.83 1365.25 1260.51 1367.25 C 1243.37 1370.27 1226.99 1358.99 1223.7 1341.9 C 1220.41 1324.82 1231.43 1308.26 1248.46 1304.7 z"/>
<path transform="translate(0,0)" fill="rgb(255,255,255)" d="M 632.106 1349.62 C 647.068 1345.47 662.544 1354.31 666.573 1369.31 C 670.602 1384.3 661.639 1399.71 646.613 1403.62 C 631.755 1407.48 616.56 1398.64 612.576 1383.82 C 608.593 1368.99 617.311 1353.72 632.106 1349.62 z"/>
<path transform="translate(0,0)" fill="rgb(255,255,255)" d="M 637.466 1417.32 C 652.781 1415.98 666.291 1427.28 667.689 1442.59 C 669.087 1457.9 657.847 1471.46 642.544 1472.92 C 627.148 1474.4 613.488 1463.07 612.081 1447.67 C 610.675 1432.27 622.057 1418.66 637.466 1417.32 z"/>
<path transform="translate(0,0)" fill="rgb(255,255,255)" d="M 635.339 1484.44 C 650.577 1482.4 664.591 1493.09 666.645 1508.32 C 668.699 1523.56 658.015 1537.58 642.779 1539.64 C 627.535 1541.7 613.507 1531.01 611.452 1515.76 C 609.397 1500.52 620.093 1486.49 635.339 1484.44 z"/>
<path transform="translate(0,0)" fill="rgb(255,255,255)" d="M 1103.37 1506.67 C 1111 1505.12 1118.88 1507.79 1123.99 1513.66 C 1129.1 1519.54 1130.66 1527.7 1128.07 1535.05 C 1125.48 1542.39 1119.14 1547.77 1111.47 1549.14 C 1099.82 1551.22 1088.66 1543.53 1086.44 1531.9 C 1084.22 1520.27 1091.77 1509.02 1103.37 1506.67 z"/>
<path transform="translate(0,0)" fill="rgb(255,255,255)" d="M 1166.16 1430.71 C 1177.83 1428.67 1188.94 1436.49 1190.96 1448.16 C 1192.98 1459.84 1185.14 1470.94 1173.46 1472.93 C 1161.82 1474.92 1150.76 1467.11 1148.74 1455.47 C 1146.73 1443.83 1154.52 1432.75 1166.16 1430.71 z"/>
<path transform="translate(0,0)" fill="rgb(255,255,255)" d="M 1007.98 1579.73 C 1019.31 1578.54 1029.48 1586.73 1030.72 1598.06 C 1031.96 1609.39 1023.81 1619.59 1012.49 1620.88 C 1001.1 1622.18 990.822 1613.97 989.572 1602.57 C 988.322 1591.17 996.575 1580.93 1007.98 1579.73 z"/>
<path transform="translate(0,0)" fill="rgb(255,255,255)" d="M 764.189 1437.5 C 770.436 1435.44 777.292 1436.51 782.616 1440.37 C 787.94 1444.24 791.082 1450.42 791.061 1457 C 791.031 1466.03 785.09 1473.97 776.439 1476.54 C 765.72 1479.74 754.424 1473.73 751.076 1463.06 C 747.728 1452.39 753.568 1441.01 764.189 1437.5 z"/>
<path transform="translate(0,0)" fill="rgb(36,48,88)" d="M 687.009 440.856 C 692.06 445.792 696.342 451.833 700.821 457.298 C 714.055 473.444 726.185 485.832 744.132 496.721 C 686.227 533.02 629.719 582.888 578.113 627.65 C 517.079 680.592 456.356 734.132 401.728 793.79 C 385.212 811.826 368.666 830.171 354.001 849.765 C 353.02 851.04 351.867 852.203 350.783 853.394 C 348.41 852.716 324.609 814.552 320.299 808.684 C 314.352 800.589 308.188 793.142 301.03 786.092 C 319.862 772.863 336.972 755.367 354.086 739.994 L 450.891 652.67 L 586.102 531.247 C 619.883 501.253 654.092 471.81 687.009 440.856 z"/>
<path transform="translate(0,0)" fill="rgb(255,255,255)" d="M 453.995 667.954 C 465.491 675.251 473.96 686.742 483.393 696.427 C 467.58 707.876 454.062 720.789 440.679 734.934 L 438.988 735.041 C 431.159 731.627 417.44 714.29 411.822 707.175 C 421.722 695.201 441.686 677.432 453.995 667.954 z"/>
<path transform="translate(0,0)" fill="rgb(255,255,255)" d="M 635.234 506.85 C 640.664 508.75 657.404 528.575 660.723 534.571 C 661.914 536.723 662.744 538.41 661.923 540.852 C 659.271 548.737 640.586 565.7 633.046 569.421 C 622.461 558.736 611.702 548 602.75 535.879 C 611.604 524.374 623.713 515.505 635.234 506.85 z"/>
<path transform="translate(0,0)" fill="rgb(255,255,255)" d="M 372.144 743.943 C 382.973 749.794 392.091 764.486 399.569 774.117 C 388.741 781.952 379.091 794.748 367.467 800.809 C 354.596 797.276 346.217 785.022 338.48 774.897 C 345.026 763.986 361.336 751.047 372.144 743.943 z"/>
<path transform="translate(0,0)" fill="rgb(255,255,255)" d="M 547.373 586.785 C 548.38 586.74 549.391 586.731 550.389 586.89 C 558.898 588.24 571.838 607.224 577.027 613.827 C 570.474 622.947 562.203 630.434 553.463 637.397 C 543.484 634.098 529.861 617.189 524.477 608.407 C 530.733 600.601 539.082 592.43 547.373 586.785 z"/>
<path transform="translate(0,0)" fill="rgb(255,255,255)" d="M 689.906 473.729 C 699.407 479.219 707.837 492.467 714.788 500.973 C 709.306 508.195 703.706 514.105 695.606 518.468 C 694.47 518.308 693.875 518.27 692.831 517.985 C 683.276 515.38 674.495 502.059 669.733 493.885 C 675.686 485.869 681.888 479.675 689.906 473.729 z"/>
<path transform="translate(0,0)" fill="rgb(255,255,255)" d="M 505.239 629.59 C 514.001 627.583 522.766 632.927 524.994 641.635 C 527.222 650.343 522.101 659.24 513.451 661.687 C 507.659 663.326 501.433 661.694 497.189 657.425 C 492.945 653.156 491.35 646.921 493.022 641.138 C 494.695 635.356 499.372 630.935 505.239 629.59 z"/>
<path transform="translate(0,0)" fill="rgb(36,48,88)" d="M 1891.83 771.738 C 1895.57 774.26 1898.82 779.078 1901.8 782.512 C 1887.49 791.991 1874.13 802.824 1860.07 812.652 C 1818.28 841.859 1777.31 870.317 1739.11 904.254 C 1741.8 907.022 1744.02 910.279 1745.88 913.658 C 1756.82 933.601 1760.16 958.82 1753.43 980.648 C 1747.06 1001.3 1731.89 1018.52 1712.82 1028.46 C 1693.22 1038.62 1670.39 1040.62 1649.32 1034.01 C 1625.42 1026.46 1609.13 1011.53 1597.75 989.606 C 1591.86 976.043 1588.53 962.983 1589.66 948.088 C 1591.42 925.139 1602.25 903.837 1619.76 888.889 C 1639.92 871.994 1666.12 868.308 1691.52 870.593 C 1692.26 868.908 1693.07 867.279 1693.89 865.634 C 1703.99 858.718 1737.52 856.431 1749.83 856.46 C 1738.99 866.576 1728.2 876.473 1718.2 887.448 C 1720.5 889.114 1722.37 891.146 1724.33 893.178 C 1751.08 868.074 1781.1 847.757 1811.3 827.13 L 1891.83 771.738 z"/>
<path transform="translate(0,0)" fill="rgb(255,255,255)" d="M 1667.54 886.349 C 1672.56 885.792 1677.52 885.809 1682.52 886.669 C 1692.05 888.311 1707.76 893.28 1713.5 901.486 C 1712 903.179 1711.74 903.462 1711.34 905.671 C 1712.77 904.918 1714.15 904.129 1715.55 903.317 L 1715.98 905.002 C 1714.05 908.371 1709.82 910.776 1706.73 913.058 C 1703.63 911.072 1700.53 909.176 1697.2 907.617 C 1683.76 901.336 1668.05 899.762 1654.04 905.134 C 1641.46 909.953 1630.44 921.296 1625.17 933.671 C 1619.67 946.593 1620.05 960.892 1625.49 973.732 C 1630.71 986.386 1640.94 996.311 1653.74 1001.15 C 1667.64 1006.49 1683.11 1005.96 1696.6 999.657 C 1709.1 993.688 1719.45 982.992 1723.86 969.74 C 1728.89 954.635 1725.96 940.537 1719.02 926.772 C 1716.92 923.299 1714.06 920.145 1711.52 916.976 C 1715.35 914.476 1719.34 912.594 1723.46 910.642 C 1731.06 920.802 1737.05 931.379 1739.27 944.024 C 1742.23 960.833 1738.33 979.462 1728.47 993.413 C 1717.96 1008.29 1702.82 1017.48 1684.84 1020.32 C 1666.88 1023.1 1648.55 1018.66 1633.85 1007.97 C 1619.16 997.258 1609.46 981.03 1606.97 963.018 C 1604.29 944.975 1609 926.613 1620.05 912.091 C 1632.12 896.15 1648.1 888.908 1667.54 886.349 z"/>
<path transform="translate(0,0)" fill="rgb(255,255,255)" d="M 1670.52 918.179 C 1689.8 916.206 1707.08 930.109 1709.28 949.363 C 1711.48 968.618 1697.79 986.061 1678.56 988.489 C 1665.92 990.086 1653.39 984.763 1645.77 974.553 C 1638.15 964.343 1636.6 950.822 1641.72 939.155 C 1646.85 927.488 1657.85 919.476 1670.52 918.179 z"/>
<path transform="translate(0,0)" fill="rgb(36,48,88)" d="M 761.241 502.944 L 762.07 503.715 C 762.976 510.897 758.485 523.061 756.265 529.999 C 754.203 536.442 750.957 542.298 746.786 547.613 C 731.864 566.626 712.66 583.835 695.221 600.542 C 664.205 630.103 632.762 659.214 600.903 687.864 C 558.462 726.138 516.404 764.547 472.598 801.278 C 447.058 822.692 420.637 846.144 390.977 861.624 C 384.156 865.184 371.698 872.258 363.935 869.855 C 362.693 868.453 361.344 867.005 360.481 865.323 C 359.123 862.672 359.438 859.966 360.283 857.232 C 362.884 848.815 371.064 840.607 376.619 833.851 C 423.782 776.485 484.512 723.477 540.237 674.239 C 578.247 640.654 615.796 606.574 655.64 575.14 C 688.619 549.123 723.46 521.651 761.241 502.944 z"/>
<path transform="translate(0,0)" fill="rgb(36,48,88)" d="M 326.764 859.496 C 330.184 861.452 332.689 866.251 334.928 869.469 C 328.11 883.622 325.137 901.49 321.955 916.872 C 305.381 996.564 300.972 1078.31 308.878 1159.32 C 328.783 1350.59 423.994 1526.07 573.492 1647.02 C 756.941 1793.88 1000.21 1842.67 1226.11 1777.91 C 1319.24 1750.6 1406.19 1704.28 1483.84 1646.45 C 1517.32 1621.51 1548.64 1591.32 1577.38 1561.05 C 1587.46 1550.44 1601.35 1530.17 1612.19 1522.45 C 1616.22 1519.58 1624.15 1519.57 1629.06 1519.04 L 1625.23 1524.37 C 1618.08 1533.58 1609.71 1542.21 1601.98 1550.94 C 1543.55 1616.79 1474.65 1672.54 1398.06 1715.94 C 1221.12 1816.5 1022.14 1843.04 825.671 1788.66 C 640.649 1736.39 483.9 1612.9 389.784 1445.25 C 321.418 1323.01 288.757 1184.03 295.522 1044.14 C 298.794 981.216 309.996 920.12 326.764 859.496 z"/>
<path transform="translate(0,0)" fill="rgb(36,48,88)" d="M 674.607 985.431 C 680.413 985.028 686.274 984.982 692.093 985.02 C 713.61 985.159 738.823 990.093 754.31 1006.24 C 765.576 1017.99 769.752 1034.09 769.429 1050 C 769.072 1067.59 763.356 1083.36 750.49 1095.64 C 727.212 1117.87 696.419 1117.43 666.372 1116.81 L 666.129 1133.69 L 665.98 1194.74 C 654.371 1195.09 642.672 1194.75 631.054 1194.67 C 629.951 1167.54 630.558 1140.2 630.665 1113.04 C 630.941 1071.79 630.957 1030.55 630.714 989.3 C 645.289 987.175 659.908 986.17 674.607 985.431 z"/>
<path transform="translate(0,0)" fill="rgb(255,255,255)" d="M 676.206 1011.39 C 681.391 1010.88 686.602 1010.71 691.808 1010.88 C 703.836 1011.22 717.217 1015.46 725.455 1024.56 C 732.343 1032.16 735.734 1042.9 734.917 1053.09 C 733.929 1065.43 727.284 1074.17 718.177 1081.85 C 700.764 1091.53 685.477 1090.77 666.321 1088.68 C 665.655 1073.3 664.265 1026.65 666.713 1013.57 C 669.331 1011.45 672.978 1011.67 676.206 1011.39 z"/>
<path transform="translate(0,0)" fill="rgb(36,48,88)" d="M 1775.56 811.431 C 1788.57 811.197 1801.58 811.663 1814.53 812.826 C 1795.86 824.488 1777.68 836.415 1760.16 849.767 C 1738.31 851.391 1717.01 854.07 1695.36 857.487 C 1665.9 862.135 1636.94 865.528 1613.6 885.98 C 1594.18 902.995 1584.6 925.097 1582.77 950.565 C 1551.3 965.451 1520.04 986.311 1493.72 1009.17 L 1484.74 1017.74 C 1473 992.098 1464 969.309 1464.08 940.654 C 1464.32 940.383 1464.55 940.109 1464.79 939.841 C 1539.53 857.305 1666.76 816.505 1775.56 811.431 z"/>
<path transform="translate(0,0)" fill="rgb(36,48,88)" d="M 1763.79 739.467 C 1782.04 739.652 1840.04 742.454 1853.82 749.805 C 1862.68 754.527 1870.95 765.236 1878.34 772.105 L 1844.31 793.327 C 1737.93 769.779 1636.29 796.517 1541.37 845.382 C 1513.34 859.113 1489.58 874.585 1467.22 896.388 C 1471.46 873.287 1481.48 853.862 1497.68 836.837 C 1554.16 777.512 1683.32 741.804 1763.79 739.467 z"/>
<path transform="translate(0,0)" fill="rgb(36,48,88)" d="M 1340.57 1043.33 C 1345.77 1042.63 1351.66 1042.81 1356.88 1043.28 C 1372.22 1044.66 1386.62 1050.94 1396.41 1063.22 C 1411.72 1082.42 1413.25 1105.7 1410.63 1129.17 C 1376.49 1128.32 1342.19 1128.99 1308.03 1128.99 C 1308.51 1132.83 1308.95 1136.79 1309.85 1140.56 C 1312.21 1150.14 1318.34 1158.37 1326.86 1163.37 C 1345.33 1174.42 1369.21 1171.41 1389.09 1166.5 L 1393.54 1165.36 C 1399.21 1169.2 1400.47 1181.5 1402.18 1188 C 1393.88 1191.34 1385.49 1193.82 1376.67 1195.36 C 1352.26 1199.62 1323.12 1199.09 1302.22 1184.1 C 1286.82 1173.06 1278.59 1155.12 1275.77 1136.79 C 1272.24 1113.91 1276.98 1089.14 1291.01 1070.46 C 1303.53 1053.78 1320.35 1046.18 1340.57 1043.33 z"/>
<path transform="translate(0,0)" fill="rgb(255,255,255)" d="M 1343.92 1065.28 C 1352.35 1065.11 1361.83 1067.89 1368.08 1073.66 C 1376.84 1081.76 1378.35 1092.95 1379 1104.18 C 1367.86 1104.75 1356.61 1104.19 1345.47 1103.96 C 1335.41 1104.08 1322.27 1105.79 1312.53 1103.9 C 1309.88 1103.39 1309.74 1102.2 1308.53 1100.01 C 1308.1 1093.68 1311.77 1088.07 1315.4 1083.14 C 1322.86 1073.03 1331.46 1067.17 1343.92 1065.28 z"/>
<path transform="translate(0,0)" fill="rgb(36,48,88)" d="M 357.543 890.098 C 360.687 890.776 363.557 890.718 365.803 893.084 C 357.767 923.306 351.826 954.855 347.812 985.87 C 322.239 1171.02 371.907 1358.7 485.716 1506.97 C 609.288 1665.93 796.604 1762.39 997.774 1770.66 C 1026.53 1771.62 1055.31 1771.06 1084.01 1768.97 C 1117.93 1766.44 1146.24 1761.47 1180.9 1765.86 C 1178.65 1767.25 1175.38 1766.9 1172.75 1767.02 C 1060.51 1787.04 954.554 1786.52 843.92 1756.77 C 664.605 1708.17 512.296 1589.65 421.138 1427.76 C 329.076 1267.28 309.701 1067.56 357.543 890.098 z"/>
<path transform="translate(0,0)" fill="rgb(36,48,88)" d="M 1003.64 293.426 C 1021.58 292.033 1040.28 292.318 1058.27 292.761 C 1260.49 299.1 1451.87 385.735 1590.06 533.509 C 1630.53 575.854 1666.02 622.691 1695.84 673.106 C 1699.39 679.031 1708.08 690.246 1707.9 696.949 C 1706.16 697.722 1705.04 698.108 1703.1 698.234 C 1700.86 698.38 1699.48 697.497 1697.98 695.81 C 1694.08 691.443 1691.93 685.032 1689.08 679.94 C 1685.89 674.244 1682.14 668.799 1678.64 663.284 C 1636.3 596.276 1584.03 536.092 1523.6 484.795 C 1456.57 426.761 1379.81 381.021 1296.87 349.683 C 1143.15 290.885 973.869 286.775 817.471 338.044 C 787.335 347.969 757.739 359.464 728.803 372.48 C 717.05 377.769 705.698 383.846 693.964 389.164 L 687.838 381.038 C 706.336 370.244 727.011 361.758 746.763 353.512 C 829.006 319.177 914.507 298.237 1003.64 293.426 z"/>
<path transform="translate(0,0)" fill="rgb(36,48,88)" d="M 1044.52 1044.14 C 1046.68 1043.93 1048.84 1043.78 1051 1043.7 C 1065.06 1043.13 1078.39 1046.33 1088.83 1056.3 C 1111.19 1077.67 1108.4 1114.44 1108.52 1142.58 C 1108.53 1159.75 1108.67 1176.93 1108.96 1194.1 C 1097.31 1194.19 1085.66 1194.43 1074.01 1194.84 C 1073.94 1171.3 1077.1 1103.95 1068.83 1086.59 C 1065.56 1079.71 1060.12 1073.6 1052.63 1071.35 C 1043.53 1068.62 1033.48 1071.69 1025.48 1076.15 C 1024.24 1077.23 1023.02 1078.3 1021.86 1079.47 C 1017.57 1083.8 1013.68 1088.42 1012.18 1094.47 C 1009.3 1106.17 1010.97 1120.7 1011.02 1132.79 L 1011.34 1194.16 C 999.646 1194.07 987.928 1194.55 976.241 1194.83 C 974.707 1145.75 978.75 1096.05 974.054 1047.13 C 984.626 1045.88 995.33 1045.82 1005.96 1045.52 C 1006 1052.97 1006.8 1059.88 1008.41 1067.15 C 1019.38 1054.91 1028.02 1047.77 1044.52 1044.14 z"/>
<path transform="translate(0,0)" fill="rgb(36,48,88)" d="M 1018.01 327.454 C 1090.96 323.929 1167.89 335.066 1237.7 356.037 C 1396.3 403.504 1534.54 502.527 1630.51 637.423 C 1645.1 657.786 1660.99 679.318 1672.86 701.409 C 1671.23 703.051 1669.2 704.046 1666.83 704.265 C 1666.48 704.297 1664.34 704.34 1663.8 704.086 C 1660.37 702.472 1645.15 675.944 1641.94 671.044 C 1598.9 605.471 1546.86 549.088 1486.53 499.23 C 1429.63 451.085 1360.89 411.081 1291.28 384.797 C 1144.59 329.413 986.285 319.505 836.106 368.474 C 815.264 375.27 794.064 382.484 773.978 391.308 C 755.209 399.553 737.164 409.304 718.499 417.663 C 716.234 418.678 714.529 420.1 712.118 419.183 C 710.464 416.401 709.72 414.699 709.243 411.502 C 714.06 406.59 739.482 396.18 746.857 392.804 C 833.253 353.254 923.024 331.067 1018.01 327.454 z"/>
<path transform="translate(0,0)" fill="rgb(36,48,88)" d="M 680.617 404.521 C 686.902 409.046 690.99 418.153 696.261 424.183 C 675.685 443.304 652.203 459.792 631.077 478.464 L 474.163 618.246 C 409.271 675.696 344.097 732.916 283.664 795.114 C 279.679 794.513 271.307 781.684 268.489 778.185 C 285.004 768.512 299.112 753.313 313.517 740.695 C 347.884 710.866 381.774 680.493 415.174 649.586 C 484.097 587.948 552.562 525.799 620.565 463.147 C 638.135 446.709 656.595 430.945 673.651 414.009 C 676.568 411.113 678.912 408.321 680.617 404.521 z"/>
<path transform="translate(0,0)" fill="rgb(36,48,88)" d="M 1220.78 1043.44 C 1235.01 1043.46 1247.28 1045 1260.31 1050.8 C 1258.19 1058.91 1256.44 1067.43 1253.18 1075.16 C 1239.95 1070.57 1224.95 1067.13 1211 1070.2 C 1198.44 1072.96 1187.68 1080.42 1180.96 1091.4 C 1173.31 1103.88 1171.33 1120.21 1174.74 1134.38 C 1177.7 1146.68 1185.03 1157.38 1196.11 1163.68 C 1214.04 1173.88 1234.77 1170.52 1253.55 1165.05 C 1254.98 1171 1256.7 1176.87 1258.36 1182.76 C 1259.15 1185.21 1259.72 1186.5 1259.03 1189.08 C 1254.36 1193.19 1242.68 1194.87 1236.44 1195.62 C 1211.25 1198.67 1183.29 1197.07 1162.76 1180.36 C 1147.9 1168.27 1140.33 1149.45 1138.83 1130.7 C 1137.11 1109.23 1142.69 1087.11 1157.01 1070.63 C 1173.76 1051.36 1196.12 1045 1220.78 1043.44 z"/>
<path transform="translate(0,0)" fill="rgb(36,48,88)" d="M 860.871 1044.22 C 865.849 1043.76 870.805 1044.02 875.792 1044.17 C 876.256 1055.04 875.965 1066.07 876.015 1076.96 C 873.36 1076.64 870.659 1076.28 867.985 1076.19 C 858.241 1075.84 848.637 1078.39 841.637 1085.48 C 836.768 1090.41 833.882 1097.06 832.398 1103.74 C 829.629 1116.22 830.911 1130.19 831.036 1142.9 C 831.325 1160.11 831.367 1177.32 831.162 1194.53 C 819.7 1194.32 808.144 1194.84 796.712 1193.99 C 795.495 1191.02 795.882 1187.69 795.898 1184.5 L 795.71 1102.66 C 795.582 1084.21 796.062 1065.31 793.851 1046.98 C 803.882 1046.32 813.892 1046.14 823.939 1045.98 C 824.164 1055.35 824.824 1064.76 825.229 1074.13 C 826.186 1072.44 827.161 1070.77 828.154 1069.1 C 836.079 1055.83 845.871 1048.01 860.871 1044.22 z"/>
<path transform="translate(0,0)" fill="rgb(36,48,88)" d="M 1583.73 973.805 C 1586.56 974.638 1586.88 978.468 1587.69 980.933 C 1592.28 994.831 1598.21 1004.26 1607.72 1015.46 C 1593.44 1025.96 1579.35 1037.09 1567.01 1049.85 C 1559.04 1058.09 1551.11 1066.83 1543.92 1075.75 C 1539.31 1081.48 1535.45 1087.9 1530.44 1093.28 C 1529.15 1094.66 1528.32 1095.54 1526.45 1096.01 L 1523.86 1093.08 C 1512.83 1075.29 1500.76 1057.41 1493.1 1037.85 C 1515.47 1014.45 1555.88 991.393 1583.73 973.805 z"/>
<path transform="translate(0,0)" fill="rgb(36,48,88)" d="M 1805.34 862.953 C 1815.36 862.704 1826.59 864.834 1836.56 866.039 C 1870.02 870.078 1942.65 878.544 1970.06 897.47 C 1959.93 896.583 1949.96 895.018 1939.78 894.482 C 1922 893.545 1904.17 894.846 1886.5 896.72 C 1844.15 900.719 1801.67 915.415 1761.08 927.481 C 1757.36 920.097 1753.76 912.654 1750.29 905.154 C 1768.24 890.517 1785.79 875.465 1805.34 862.953 z"/>
<path transform="translate(0,0)" fill="rgb(36,48,88)" d="M 899.158 1045.64 L 933.893 1045.92 C 934.385 1095.39 932.364 1145.4 934.654 1194.78 C 922.652 1194.67 910.649 1194.7 898.647 1194.86 C 899.476 1145.13 898.762 1095.38 899.158 1045.64 z"/>
<path transform="translate(0,0)" fill="rgb(36,48,88)" d="M 516.189 304.172 C 518.735 303.998 521.245 303.918 523.787 304.211 C 530.477 304.951 536.541 308.492 540.474 313.955 C 544.341 319.415 545.777 326.231 544.441 332.786 C 542.821 340.62 539.023 344.099 532.497 348.239 C 540.241 361.632 548.057 375.007 554.072 389.289 C 546.52 397.225 539.231 404.882 530.16 411.104 C 522.705 416.135 514.541 419.979 506.416 423.779 C 505.434 399.655 509.764 374.431 513.074 350.614 C 506.881 347.358 502.014 342.365 499.502 335.778 C 497.148 329.609 497.262 322.593 500.316 316.676 C 503.717 310.09 509.409 306.561 516.189 304.172 z"/>
<path transform="translate(0,0)" fill="rgb(36,48,88)" d="M 1915.52 805.005 L 1917.42 804.997 C 1925.56 808.427 1953.39 849.68 1959.94 859.204 C 1939 854.736 1918.31 849.961 1897.19 846.32 C 1877.98 843.015 1858.05 842.767 1839.1 838.794 C 1867.44 817.595 1882.77 815.338 1915.52 805.005 z"/>
<path transform="translate(0,0)" fill="rgb(36,48,88)" d="M 1740.47 708.433 C 1762.92 707.746 1797.72 706.247 1818.45 714.211 C 1818.11 714.331 1817.79 714.568 1817.42 714.572 C 1810.38 714.64 1803.18 713.685 1795.95 713.903 C 1726.28 715.549 1657.47 729.627 1592.75 755.475 C 1572.57 763.807 1553.78 774.033 1534.77 784.715 C 1568.5 751.501 1622.55 727.1 1668.49 716.9 C 1692.29 711.616 1716.17 709.568 1740.47 708.433 z"/>
<path transform="translate(0,0)" fill="rgb(36,48,88)" d="M 233.697 605.74 C 245.596 609.52 257.533 613.578 269.674 616.507 C 279.62 618.906 289.736 620.426 299.656 622.968 C 292.869 632.983 283.833 639.918 273.899 646.584 C 264.852 652.566 254.89 657.035 244.405 659.813 C 236.518 648.731 228.433 637.792 220.153 627.001 C 228.125 620.783 230.772 615.177 233.697 605.74 z"/>
<path transform="translate(0,0)" fill="rgb(36,48,88)" d="M 201.171 582.179 C 213.668 578.779 226.557 586.145 229.97 598.639 C 233.382 611.132 226.028 624.028 213.538 627.453 C 201.03 630.883 188.112 623.516 184.695 611.005 C 181.277 598.494 188.657 585.584 201.171 582.179 z"/>
<path transform="translate(0,0)" fill="rgb(36,48,88)" d="M 1556.35 1540.95 L 1557.52 1541.37 C 1554.81 1547.83 1544.91 1555.34 1539.88 1560.27 C 1500.67 1598.7 1459.65 1633.32 1414.57 1664.69 L 1414.03 1664.78 L 1413.73 1663.96 C 1440.72 1635.24 1470.72 1610.43 1500.08 1584.27 C 1512.08 1573.58 1523.37 1560.7 1536.31 1551.26 C 1542.72 1546.59 1549.03 1543.86 1556.35 1540.95 z"/>
<path transform="translate(0,0)" fill="rgb(36,48,88)" d="M 915.393 985.182 C 926.622 984.809 936.012 993.644 936.32 1004.88 C 936.629 1016.11 927.74 1025.45 916.506 1025.69 C 905.364 1025.93 896.117 1017.13 895.811 1005.99 C 895.505 994.849 904.254 985.552 915.393 985.182 z"/>
</svg>